# xmcd
#
# Track frame offsets: 
#        150
#        17935
#        35377
#        52896
#        68247
#        79373
#        96842
#        108203
#        121999
#        136239
#        149994
#        167843
#        184605
#
# Disc length: 2651 seconds
#
# Revision: 0
# Processed by: cddbd v1.5.2PL0 Copyright (c) Steve Scherf et al.
# Submitted via: ExactAudioCopy v0.99pb3
#
DISCID=b60a590d
DTITLE=Hosea Hargrove - Tex Golden Nugget
DYEAR=2010
DGENRE=Blues
TTITLE0=Negro Down
TTITLE1=Nine Pounds Of Steel
TTITLE2=44 In My Hand
TTITLE3=Boog A Loo
TTITLE4=booty
TTITLE5=Caress Me Baby
TTITLE6=Hosea
TTITLE7=King Arthur
TTITLE8=If You Love Me Like You Say
TTITLE9=Love My Life (Part 2)
TTITLE10=Years Go Passing By
TTITLE11=i'm In Love With You Baby
TTITLE12=Rock Me Baby
EXTD=
EXTT0=
EXTT1=
EXTT2=
EXTT3=
EXTT4=
EXTT5=
EXTT6=
EXTT7=
EXTT8=
EXTT9=
EXTT10=
EXTT11=
EXTT12=
PLAYORDER=
